<?xml version="1.0" encoding="iso-8859-1"?>
<!-- Uploaded to: SVG Repo, www.svgrepo.com, Generator: SVG Repo Mixer Tools -->
<!DOCTYPE svg PUBLIC "-//W3C//DTD SVG 1.1//EN" "http://www.w3.org/Graphics/SVG/1.1/DTD/svg11.dtd">
<svg fill="#000000" height="800px" width="800px" version="1.1" id="Capa_1" xmlns="http://www.w3.org/2000/svg" xmlns:xlink="http://www.w3.org/1999/xlink" 
	 viewBox="0 0 351.318 351.318" xml:space="preserve">
<g>
	<path d="M183.177,239.329v35.443h12.998c10.069,0,18.261-7.935,18.261-17.69c0-9.788-8.192-17.753-18.261-17.753H183.177z"/>
	<path d="M315.956,217.696h-25.435V101.62c0-3.979-1.581-7.794-4.393-10.606l-86.62-86.62C196.695,1.58,192.879,0,188.901,0H44.498
		c-8.284,0-15,6.716-15,15v321.318c0,8.284,6.716,15,15,15h231.023c8.284,0,15-6.716,15-15v-36.915h25.435
		c3.239,0,5.864-2.625,5.864-5.863v-69.98C321.82,220.322,319.195,217.696,315.956,217.696z M260.521,217.696H147.723
		c-3.238,0-5.863,2.626-5.863,5.864v69.98c0,3.238,2.625,5.863,5.863,5.863h112.799v21.915H59.498V30H180.84v64.837
		c0,8.284,6.716,15,15,15h64.682V217.696z M257.274,274.772v7.607H229.82v-50.658h7.608v43.051H257.274z M222.043,257.082
		c0,13.95-11.604,25.298-25.868,25.298h-20.606v-50.658h20.606C210.439,231.722,222.043,243.099,222.043,257.082z M291.237,282.38
		h-27.454v-50.658h7.608v43.051h19.845V282.38z"/>
</g>
</svg>