<?xml version="1.0" standalone="no"?>
<!DOCTYPE svg PUBLIC "-//W3C//DTD SVG 20010904//EN"
 "http://www.w3.org/TR/2001/REC-SVG-20010904/DTD/svg10.dtd">
<svg version="1.0" xmlns="http://www.w3.org/2000/svg"
 width="256.000000pt" height="256.000000pt" viewBox="0 0 256.000000 256.000000"
 preserveAspectRatio="xMidYMid meet">

<g transform="translate(0.000000,256.000000) scale(0.100000,-0.100000)"
fill="#000000" stroke="none">
<path d="M722 2531 c-8 -5 -38 -9 -68 -10 -30 0 -71 -8 -90 -16 -20 -8 -43
-15 -51 -15 -7 0 -37 -17 -66 -39 -29 -21 -69 -42 -89 -45 -21 -4 -51 -18 -67
-31 -16 -14 -33 -25 -38 -25 -28 0 -73 -80 -87 -151 -4 -21 -20 -49 -41 -69
-32 -31 -43 -56 -50 -118 -5 -45 14 -125 35 -147 23 -25 24 -39 8 -99 -10 -38
-9 -48 9 -85 13 -26 15 -37 7 -30 -9 8 -14 8 -14 1 0 -6 13 -19 29 -28 42 -25
58 -58 42 -88 -11 -20 -10 -28 4 -50 10 -14 25 -26 34 -26 28 0 33 12 9 24
-12 6 -23 17 -26 24 -4 12 0 12 19 1 32 -16 48 -39 49 -66 0 -28 -10 -29 -60
-3 -21 11 -41 16 -44 11 -8 -12 31 -44 47 -38 7 2 21 -1 31 -9 15 -10 17 -21
13 -49 -5 -29 -3 -34 6 -26 13 10 24 -20 56 -153 6 -26 20 -68 31 -92 11 -23
20 -45 20 -48 0 -8 89 -124 101 -132 6 -3 20 -29 33 -58 29 -65 70 -100 136
-116 29 -7 55 -20 60 -30 5 -10 13 -50 16 -89 6 -66 5 -74 -16 -96 -22 -23
-22 -26 -7 -49 9 -13 25 -27 35 -30 19 -7 47 -74 57 -142 8 -50 -9 -72 -85
-110 -55 -28 -191 -117 -243 -161 l-29 -23 92 0 c71 0 92 3 96 15 4 8 10 15
15 15 4 0 19 10 32 23 60 55 96 83 123 97 16 8 37 23 47 34 9 10 17 16 17 12
0 -15 60 26 80 54 18 25 19 30 6 30 -9 0 -16 5 -16 10 0 6 5 10 10 10 7 0 8 6
2 17 -6 9 -6 29 -1 45 9 31 9 34 9 48 0 6 7 10 15 10 8 0 15 4 15 9 0 13 -27
21 -47 14 -12 -5 -15 -2 -11 8 4 11 0 15 -14 15 -34 -1 -33 24 0 36 l30 12 -4
73 c-3 59 -1 75 11 79 8 4 15 10 15 16 0 5 11 24 24 41 20 28 40 77 31 77 -2
0 -16 -5 -30 -10 -28 -11 -78 -19 -157 -25 -38 -3 -46 -1 -41 11 6 15 6 15
-77 20 -94 5 -100 6 -100 15 0 5 -5 9 -11 9 -30 0 -55 61 -38 92 12 22 75 52
89 43 17 -10 22 16 6 34 -21 23 -20 41 2 41 10 0 27 7 38 15 19 15 19 16 -1
14 -42 -3 -66 1 -60 11 4 6 23 7 45 4 48 -8 90 2 90 20 0 10 -13 14 -44 14
-27 -1 -56 7 -77 19 -19 11 -40 18 -47 16 -7 -3 -23 -2 -36 1 -54 13 9 109 81
122 22 4 32 11 29 20 -3 7 0 15 7 18 7 2 -14 5 -45 5 -31 1 -68 -4 -81 -10
-19 -9 -31 -7 -56 5 -30 16 -42 48 -22 60 5 3 12 18 15 32 4 15 30 72 58 128
75 150 79 200 26 280 -19 27 -68 76 -76 75 -13 -2 -52 13 -52 20 0 4 -13 6
-29 3 -26 -4 -29 -2 -24 17 3 12 1 21 -6 21 -6 0 -11 -5 -11 -12 0 -6 -3 -8
-6 -5 -4 4 -1 13 6 22 10 12 10 15 0 15 -10 0 -10 3 0 15 6 8 9 19 5 25 -3 5
-2 10 4 10 5 0 12 -6 14 -12 4 -9 6 -10 6 -1 1 6 -6 18 -14 27 -20 19 -19 26
3 26 14 0 15 2 2 10 -10 6 -11 10 -2 10 6 0 12 10 12 23 0 13 10 34 23 47 12
14 21 27 20 30 -5 10 21 58 29 54 4 -3 8 0 8 6 0 14 25 40 38 40 6 0 12 6 14
12 4 10 10 10 33 0 15 -7 30 -10 33 -7 3 3 0 5 -6 5 -18 0 -14 27 4 34 9 4 23
1 30 -5 11 -9 19 -6 39 15 37 40 63 33 28 -7 -18 -19 -17 -20 5 -8 13 7 33 22
45 34 l22 22 3 -23 c2 -13 10 -26 17 -28 8 -3 19 -22 26 -42 7 -20 17 -42 23
-48 6 -7 19 -20 28 -30 25 -28 40 -38 76 -53 17 -7 32 -18 32 -23 0 -6 7 -8
15 -4 8 3 15 1 15 -4 0 -6 14 -25 31 -43 17 -17 36 -44 41 -59 6 -16 17 -28
26 -28 19 -1 52 -23 52 -35 0 -4 -7 -4 -16 -1 -10 4 -14 1 -12 -6 3 -7 18 -16
34 -20 17 -4 39 -17 49 -28 17 -19 17 -21 -1 -47 -10 -16 -17 -32 -16 -37 2
-5 -5 -6 -14 -2 -14 5 -15 4 -4 -9 12 -15 0 -22 -14 -7 -4 4 -11 7 -14 8 -4 0
-20 6 -35 12 -85 36 -256 38 -306 5 l-25 -16 22 -8 c12 -5 30 -6 40 -2 14 5
15 3 5 -8 -20 -20 -15 -34 5 -16 10 9 26 16 37 15 11 -1 36 2 55 5 25 5 29 4
15 -2 l-20 -10 20 0 c11 0 26 3 33 8 26 16 204 -34 185 -52 -3 -4 0 -7 9 -7
20 0 48 -32 53 -61 3 -13 9 -25 14 -27 5 -2 2 -25 -7 -53 -12 -38 -13 -52 -4
-61 9 -9 12 -8 12 7 0 15 3 16 9 7 5 -8 0 -29 -11 -52 -19 -38 -17 -80 3 -80
6 0 5 -9 -2 -21 -9 -17 -7 -29 7 -60 11 -21 25 -39 32 -39 6 0 12 -10 13 -22
0 -13 3 -17 6 -10 3 7 21 19 41 28 32 13 37 13 44 -1 5 -8 18 -15 28 -15 10 0
22 -4 25 -10 3 -5 0 -10 -8 -10 -8 0 -18 -7 -21 -16 -3 -9 -12 -14 -20 -11 -8
3 -16 -2 -19 -15 -3 -11 -10 -17 -16 -14 -7 5 -7 15 -1 31 5 14 6 25 1 25 -5
0 -14 -12 -19 -27 l-10 -28 -10 25 c-9 22 -11 23 -17 7 -8 -18 21 -97 35 -97
5 0 11 7 14 16 4 9 9 15 11 12 3 -2 -4 -23 -15 -46 -22 -45 -27 -122 -9 -122
8 0 10 14 6 43 -4 28 -2 48 5 55 19 19 23 14 26 -35 1 -26 9 -58 18 -70 8 -13
12 -28 9 -33 -3 -6 -2 -10 4 -10 18 0 18 25 -1 55 -20 33 -23 49 -8 40 14 -9
37 -67 44 -110 11 -66 47 -118 68 -97 7 7 16 4 29 -9 22 -22 16 -43 -11 -36
-16 4 -16 2 -4 -21 12 -24 11 -29 -7 -48 -22 -24 -17 -49 7 -40 8 3 17 -1 20
-9 4 -8 13 -15 22 -15 8 0 12 -3 9 -6 -4 -4 13 -16 37 -28 24 -12 41 -26 39
-33 -3 -7 0 -13 6 -13 6 0 11 -10 11 -22 0 -19 2 -20 10 -8 7 11 10 12 10 2 0
-7 6 -20 13 -27 6 -8 17 -20 22 -27 15 -19 39 -72 37 -81 -4 -14 19 -48 27
-42 5 3 12 -6 15 -20 8 -31 62 -66 92 -59 26 7 49 -15 72 -67 9 -22 25 -42 35
-45 9 -3 15 -9 12 -14 -3 -5 0 -10 5 -12 6 -2 12 -13 12 -25 2 -13 7 -19 16
-15 12 4 12 1 3 -17 -10 -17 -9 -22 4 -27 8 -3 15 -18 15 -33 1 -22 2 -24 13
-10 7 9 29 24 50 34 33 15 37 21 33 44 -3 14 -8 53 -11 86 -8 68 -23 123 -42
146 -8 10 -13 44 -13 92 0 71 -2 77 -30 106 -36 35 -90 49 -127 32 -43 -20
-45 3 -3 38 50 41 59 80 35 164 -27 97 -74 147 -140 147 -30 0 -32 11 -5 35
11 10 22 26 26 37 5 17 7 17 26 -7 23 -30 68 -55 99 -55 11 0 52 8 90 17 59
14 77 24 119 65 52 51 68 92 56 148 -5 27 -3 30 17 25 30 -8 90 19 115 50 11
14 27 25 35 25 42 0 87 125 69 192 -6 23 -4 45 6 74 22 58 10 104 -37 147 -48
43 -57 91 -29 154 19 42 19 44 -1 85 -29 63 -65 97 -122 118 -32 11 -55 26
-62 41 -7 12 -33 34 -60 47 -45 24 -50 24 -107 12 -47 -10 -67 -20 -89 -46
-29 -32 -41 -34 -41 -6 0 33 -54 149 -83 181 -38 40 -174 106 -235 114 -25 3
-81 26 -134 56 -51 28 -117 58 -147 67 -31 9 -71 20 -89 26 -45 13 -133 29
-205 35 -41 3 -73 -1 -116 -15 -48 -16 -68 -18 -103 -11 -24 6 -47 14 -52 20
-12 11 -46 12 -64 0z m521 -706 c-3 -9 -8 -14 -10 -11 -3 3 -2 9 2 15 9 16 15
13 8 -4z m-773 -51 c0 -15 -16 -19 -24 -6 -2 4 -25 7 -50 6 -44 -2 -45 -1 -24
16 18 14 28 15 60 7 21 -5 38 -16 38 -23z m791 -1 c-8 -15 -10 -15 -11 -2 0
17 10 32 18 25 2 -3 -1 -13 -7 -23z m-761 3 c0 -3 -4 -8 -10 -11 -5 -3 -10 -1
-10 4 0 6 5 11 10 11 6 0 10 -2 10 -4z m15 -26 c3 -5 1 -10 -4 -10 -6 0 -11 5
-11 10 0 6 2 10 4 10 3 0 8 -4 11 -10z m-3 -49 c22 -18 37 -36 34 -39 -3 -3
-14 2 -24 11 -27 25 -87 47 -129 48 -31 0 -34 2 -18 9 39 17 96 5 137 -29z
m-122 -37 c0 -8 -5 -12 -10 -9 -6 4 -8 11 -5 16 9 14 15 11 15 -7z m48 -40
c17 10 92 14 98 5 3 -5 0 -9 -5 -9 -6 0 -11 -5 -11 -11 0 -5 5 -7 11 -4 6 4 5
-2 -3 -14 -7 -12 -16 -21 -21 -21 -4 0 -6 -4 -2 -10 3 -5 -2 -26 -11 -47 -9
-21 -16 -50 -15 -66 1 -16 -5 -30 -14 -33 -8 -3 -12 -10 -9 -15 3 -5 0 -25 -7
-44 -10 -28 -10 -42 -1 -68 13 -36 -1 -103 -19 -92 -4 3 -6 12 -2 21 3 8 -2
23 -12 34 -9 10 -14 24 -10 30 3 6 3 10 -2 9 -27 -5 -35 3 -31 26 3 14 1 28
-4 31 -4 3 -6 10 -2 15 3 6 -2 26 -11 45 -18 38 -29 117 -21 150 5 17 11 20
31 16 14 -2 25 -9 25 -16 0 -6 4 -5 9 3 8 12 12 12 24 2 10 -7 18 -8 21 -2 4
5 1 13 -5 17 -8 4 -4 11 12 20 23 13 24 13 2 14 -29 0 -53 10 -53 22 0 6 6 5
15 -2 8 -6 18 -9 23 -6z m882 -224 c0 -5 -5 -10 -11 -10 -5 0 -7 5 -4 10 3 6
8 10 11 10 2 0 4 -4 4 -10z m0 -40 c0 -5 -2 -10 -4 -10 -3 0 -8 5 -11 10 -3 6
-1 10 4 10 6 0 11 -4 11 -10z m-834 -316 c-14 -27 -15 -27 -16 -6 0 12 -4 22
-9 22 -15 0 -22 33 -9 41 8 5 20 1 31 -10 18 -17 18 -21 3 -47z m934 5 c0 -6
-4 -7 -10 -4 -5 3 -10 11 -10 16 0 6 5 7 10 4 6 -3 10 -11 10 -16z m160 -224
c0 -8 -4 -15 -9 -15 -5 0 -11 7 -15 15 -3 9 0 15 9 15 8 0 15 -7 15 -15z m0
-76 c-7 -11 -14 -19 -16 -16 -7 7 7 37 17 37 6 0 5 -9 -1 -21z m-701 -312 c1
-5 -3 -5 -9 -2 -5 3 -10 16 -9 28 0 21 1 21 9 2 5 -11 9 -24 9 -28z m-39 17
c0 -8 -4 -12 -10 -9 -5 3 -10 10 -10 16 0 5 5 9 10 9 6 0 10 -7 10 -16z m994
-39 c-13 -13 -24 -30 -25 -37 -1 -7 -4 -2 -8 12 -11 36 -4 47 28 48 l29 1 -24
-24z m29 -22 c-6 -16 -4 -16 15 1 19 16 22 17 22 3 0 -8 -12 -25 -27 -36 -27
-20 -27 -20 -5 -21 12 0 30 8 41 19 18 18 19 18 19 -7 0 -16 -7 -26 -19 -29
-11 -3 -19 -9 -19 -14 0 -5 -11 -2 -25 7 -33 22 -36 94 -4 94 5 0 6 -8 2 -17z"/>
<path d="M480 1585 c-17 -10 -20 -14 -9 -15 9 0 22 7 29 15 15 18 12 18 -20 0z"/>
<path d="M340 1551 c0 -6 5 -13 10 -16 6 -3 10 1 10 9 0 9 -4 16 -10 16 -5 0
-10 -4 -10 -9z"/>
<path d="M390 1971 c0 -5 5 -13 10 -16 6 -3 10 -2 10 4 0 5 -4 13 -10 16 -5 3
-10 2 -10 -4z"/>
<path d="M778 1773 c6 -2 18 -2 25 0 6 3 1 5 -13 5 -14 0 -19 -2 -12 -5z"/>
<path d="M1055 1670 c3 -5 11 -10 16 -10 6 0 7 5 4 10 -3 6 -11 10 -16 10 -6
0 -7 -4 -4 -10z"/>
<path d="M866 1650 c-57 -22 -84 -44 -67 -54 6 -4 11 -3 11 2 0 6 10 8 22 4
13 -3 19 -1 15 5 -9 14 10 28 46 37 23 6 27 3 27 -16 0 -13 4 -29 9 -36 11
-18 66 -18 87 -1 9 8 29 13 43 11 l26 -3 -23 21 c-22 18 -111 51 -136 50 -6
-1 -33 -10 -60 -20z"/>
<path d="M201 1393 c-2 -26 12 -43 38 -42 l26 1 -27 9 c-15 6 -29 18 -31 27
-3 9 -5 12 -6 5z"/>
<path d="M1320 924 c0 -5 9 -20 19 -33 13 -17 24 -22 39 -17 35 11 34 33 -1
28 -21 -3 -34 1 -44 14 -7 10 -13 14 -13 8z"/>
<path d="M1480 800 c0 -5 7 -10 16 -10 8 0 12 5 9 10 -3 6 -10 10 -16 10 -5 0
-9 -4 -9 -10z"/>
<path d="M1498 723 c7 -3 16 -2 19 1 4 3 -2 6 -13 5 -11 0 -14 -3 -6 -6z"/>
<path d="M1428 683 c7 -3 16 -2 19 1 4 3 -2 6 -13 5 -11 0 -14 -3 -6 -6z"/>
<path d="M1470 669 c-11 -19 -10 -20 9 -9 12 6 21 15 21 20 0 18 -19 11 -30
-11z"/>
<path d="M1350 650 c0 -5 5 -10 10 -10 6 0 10 5 10 10 0 6 -4 10 -10 10 -5 0
-10 -4 -10 -10z"/>
<path d="M1396 643 c-9 -22 -4 -24 17 -8 14 10 15 14 3 18 -8 3 -17 -1 -20
-10z"/>
<path d="M1310 608 c0 -17 2 -18 15 -8 8 7 15 14 15 15 0 2 -7 5 -15 9 -10 4
-15 -1 -15 -16z"/>
<path d="M1121 517 c-13 -21 -12 -21 5 -5 10 10 16 20 13 22 -3 3 -11 -5 -18
-17z"/>
<path d="M1058 513 c7 -3 16 -2 19 1 4 3 -2 6 -13 5 -11 0 -14 -3 -6 -6z"/>
<path d="M951 489 c-1 -21 21 -30 40 -18 11 7 9 9 -8 9 -12 0 -24 6 -26 13 -4
7 -6 6 -6 -4z"/>
<path d="M1025 479 c-9 -14 -2 -20 14 -10 8 6 9 11 3 15 -6 3 -14 1 -17 -5z"/>
<path d="M2218 53 c-25 -10 -38 -22 -38 -34 0 -11 5 -19 11 -19 6 0 9 7 5 15
-3 8 -1 15 4 15 6 0 10 -7 10 -15 0 -9 9 -15 25 -15 23 0 24 2 15 20 -14 26 1
26 18 0 8 -13 23 -20 44 -20 l32 0 -34 35 c-38 39 -40 39 -92 18z"/>
<path d="M2145 20 c-3 -5 -2 -10 4 -10 5 0 13 5 16 10 3 6 2 10 -4 10 -5 0
-13 -4 -16 -10z"/>
</g>
</svg>
