<svg fill="none" height="24" viewBox="0 0 24 24" width="24" xmlns="http://www.w3.org/2000/svg"><g fill="#fff"><path d="m17.1109 13.5754c.3905.3905 1.0237.3905 1.4142 0l2.4749-2.4749c2.1479-2.14785 2.1479-5.63025 0-7.77814-2.1479-2.14788-5.6303-2.14788-7.7782 0l-2.4749 2.47488c-.3905.39052-.3905 1.02369 0 1.41421.3906.39052 1.0237.39052 1.4143 0l2.4748-2.47487c1.3669-1.36684 3.5829-1.36684 4.9498 0 1.3668 1.36683 1.3668 3.58291 0 4.94974l-2.4749 2.47488c-.3905.3905-.3905 1.0237 0 1.4142z"/><path d="m5.79719 10.747c.39052-.3905 1.02369-.3905 1.41421 0 .39053.3905.39053 1.0237 0 1.4142l-2.47487 2.4749c-1.36684 1.3668-1.36684 3.5829 0 4.9497 1.36683 1.3669 3.58291 1.3669 4.94975 0l2.47492-2.4749c.3905-.3905 1.0236-.3905 1.4142 0 .3905.3906.3905 1.0237 0 1.4143l-2.4749 2.4748c-2.14789 2.1479-5.6303 2.1479-7.77818 0-2.14789-2.1479-2.14789-5.6303 0-7.7781z"/><path d="m8.97917 15.3432c-.39052-.3905-.39052-1.0237 0-1.4142l4.94973-4.94978c.3905-.39053 1.0237-.39053 1.4142 0 .3906.39052.3906 1.02368 0 1.41418l-4.9497 4.9498c-.3905.3905-1.0237.3905-1.41423 0z"/></g></svg>